<svg xmlns="http://www.w3.org/2000/svg" xmlns:xlink="http://www.w3.org/1999/xlink" width="500" zoomAndPan="magnify" viewBox="0 0 375 374.999991" height="500" preserveAspectRatio="xMidYMid meet" version="1.0"><defs><clipPath id="cd47d45b76"><path d="M 17.761719 144.21875 L 357.511719 144.21875 L 357.511719 230.46875 L 17.761719 230.46875 Z M 17.761719 144.21875 " clip-rule="nonzero"/></clipPath></defs><g clip-path="url(#cd47d45b76)"><path fill="#ffffff" d="M 351.28125 182.585938 L 211.3125 197.886719 C 211.726562 195.40625 212.144531 193.339844 212.144531 191.269531 L 243.292969 185.480469 L 241.21875 184.242188 L 212.144531 187.960938 C 212.144531 175.144531 202.175781 164.390625 189.300781 163.148438 L 187.222656 144.539062 L 184.730469 163.148438 C 171.855469 164.390625 162.300781 174.730469 161.886719 187.960938 L 132.8125 184.242188 L 130.734375 185.480469 L 162.300781 191.269531 C 162.71875 193.339844 163.132812 195.40625 163.546875 197.886719 L 23.578125 182.585938 C 23.578125 182.585938 20.253906 181.757812 17.761719 185.066406 C 17.761719 185.066406 18.179688 187.960938 22.332031 188.375 L 98.753906 199.953125 C 94.601562 202.847656 91.695312 207.8125 91.695312 213.601562 C 91.695312 222.699219 99.167969 230.144531 108.308594 230.144531 C 117.445312 230.144531 124.921875 222.699219 124.921875 213.601562 C 124.921875 209.878906 123.675781 206.15625 121.597656 203.675781 L 169.777344 211.121094 C 174.347656 218.152344 180.578125 223.527344 188.054688 223.527344 C 195.113281 223.527344 201.757812 218.152344 206.328125 211.121094 L 253.675781 203.261719 C 251.601562 206.15625 250.355469 209.464844 250.355469 213.1875 C 250.355469 222.285156 257.832031 229.730469 266.96875 229.730469 C 276.105469 229.730469 283.582031 222.285156 283.582031 213.1875 C 283.582031 207.8125 280.675781 202.851562 276.519531 199.542969 L 352.945312 187.960938 C 357.097656 187.546875 357.511719 184.652344 357.511719 184.652344 C 354.191406 181.757812 351.28125 182.585938 351.28125 182.585938 Z M 107.890625 224.355469 C 101.660156 224.355469 96.675781 219.390625 96.675781 213.1875 C 96.675781 206.984375 101.660156 202.023438 107.890625 202.023438 C 114.121094 202.023438 119.105469 206.984375 119.105469 213.1875 C 118.691406 219.390625 113.707031 224.355469 107.890625 224.355469 Z M 188.054688 184.242188 L 168.949219 184.242188 C 168.949219 176.796875 178.085938 174.316406 178.085938 174.316406 L 196.773438 174.316406 C 196.773438 174.316406 205.914062 176.796875 205.914062 184.242188 Z M 277.765625 213.1875 C 277.765625 219.390625 272.78125 224.355469 266.550781 224.355469 C 260.324219 224.355469 255.339844 219.390625 255.339844 213.1875 C 255.339844 206.984375 260.324219 202.023438 266.550781 202.023438 C 272.78125 202.023438 277.765625 207.398438 277.765625 213.1875 Z M 277.765625 213.1875 " fill-opacity="1" fill-rule="nonzero"/></g></svg>