<svg xmlns="http://www.w3.org/2000/svg" xmlns:xlink="http://www.w3.org/1999/xlink" width="500" zoomAndPan="magnify" viewBox="0 0 375 374.999991" height="500" preserveAspectRatio="xMidYMid meet" version="1.0"><defs><clipPath id="52698eaa6d"><path d="M 13.785156 196 L 247.574219 196 L 247.574219 282.167969 L 13.785156 282.167969 Z M 13.785156 196 " clip-rule="nonzero"/></clipPath><clipPath id="af857f9b59"><path d="M 234 119.492188 L 361 119.492188 L 361 234 L 234 234 Z M 234 119.492188 " clip-rule="nonzero"/></clipPath></defs><path fill="#ffffff" d="M 249.527344 217.285156 L 249.519531 217.25 L 249.515625 217.25 Z M 249.527344 217.285156 " fill-opacity="1" fill-rule="nonzero"/><path fill="#ffffff" d="M 156.175781 239.074219 L 156.179688 239.074219 C 156.167969 239.050781 156.15625 239.019531 156.144531 238.992188 L 156.136719 238.992188 C 156.148438 239.023438 156.164062 239.050781 156.175781 239.074219 " fill-opacity="1" fill-rule="nonzero"/><path fill="#ffffff" d="M 105.222656 255.167969 C 105.222656 255.175781 105.226562 255.179688 105.230469 255.183594 L 105.222656 255.167969 " fill-opacity="1" fill-rule="nonzero"/><g clip-path="url(#52698eaa6d)"><path fill="#ffffff" d="M 15.265625 266.933594 C 16.105469 268.984375 17.320312 270.898438 18.792969 272.527344 C 20.269531 274.15625 21.980469 275.488281 23.753906 276.574219 C 27.320312 278.730469 31.105469 279.957031 34.828125 280.765625 C 38.5625 281.558594 42.277344 281.929688 45.953125 282.089844 C 49.625 282.25 53.265625 282.148438 56.875 281.925781 C 64.089844 281.472656 71.1875 280.449219 78.179688 279.078125 C 81.667969 278.382812 85.140625 277.625 88.582031 276.765625 C 92.023438 275.921875 95.445312 274.992188 98.84375 274 C 104.148438 272.464844 109.398438 270.769531 114.597656 268.960938 C 117.964844 267.785156 121.3125 266.566406 124.644531 265.304688 C 129.34375 263.53125 134.015625 261.679688 138.65625 259.785156 C 146.417969 256.597656 154.113281 253.28125 161.769531 249.894531 C 164.875 248.519531 167.976562 247.132812 171.070312 245.742188 C 173.132812 244.816406 175.1875 243.890625 177.238281 242.960938 C 190 237.171875 202.691406 231.238281 215.308594 225.148438 C 223.730469 221.066406 232.210938 216.929688 240.582031 212.726562 C 242.117188 211.960938 244.628906 210.683594 246.300781 209.832031 C 247.414062 209.261719 247.625 207.710938 246.660156 206.917969 C 246.601562 206.871094 246.546875 206.828125 246.492188 206.796875 C 245.003906 205.886719 243.140625 205.863281 241.632812 206.730469 C 240.746094 207.238281 239.800781 207.785156 239.128906 208.171875 C 230.789062 213.015625 222.347656 217.667969 213.78125 222.101562 C 201.390625 228.523438 188.777344 234.519531 175.929688 239.957031 C 175.03125 240.34375 174.128906 240.714844 173.226562 241.085938 C 172.765625 241.285156 172.308594 241.472656 171.851562 241.660156 C 171.644531 241.742188 171.4375 241.824219 171.234375 241.910156 C 170.925781 242.035156 170.613281 242.167969 170.300781 242.292969 C 169.996094 242.417969 169.691406 242.542969 169.386719 242.667969 C 169.15625 242.765625 168.925781 242.855469 168.695312 242.945312 C 168.144531 243.171875 167.589844 243.394531 167.042969 243.613281 C 167.035156 243.609375 167.027344 243.621094 167.019531 243.621094 C 166.226562 243.933594 165.433594 244.246094 164.640625 244.5625 C 163.851562 244.871094 163.039062 245.117188 162.246094 245.421875 C 161.453125 245.726562 160.65625 246.027344 159.839844 246.273438 L 159.820312 246.277344 C 152.253906 249.429688 144.476562 251.917969 136.707031 254.421875 C 131.242188 256.191406 125.722656 257.785156 120.234375 259.449219 L 120.222656 259.457031 C 116.785156 260.5 113.351562 261.542969 109.847656 262.324219 C 109.84375 262.328125 109.84375 262.328125 109.839844 262.328125 L 109.800781 262.339844 C 105.46875 263.660156 101.050781 264.683594 96.660156 265.742188 C 94.980469 266.148438 93.304688 266.570312 91.625 266.953125 C 89.945312 267.335938 88.269531 267.726562 86.582031 268.085938 C 83.214844 268.800781 79.855469 269.503906 76.480469 270.117188 C 69.738281 271.347656 62.980469 272.363281 56.253906 272.886719 C 52.890625 273.148438 49.542969 273.253906 46.230469 273.195312 C 42.921875 273.132812 39.652344 272.871094 36.535156 272.28125 C 33.421875 271.695312 30.441406 270.800781 27.96875 269.402344 C 25.496094 268 23.613281 266.152344 22.539062 263.808594 C 21.441406 261.480469 21.1875 258.609375 21.542969 255.597656 C 21.898438 252.582031 22.855469 249.472656 24.078125 246.425781 C 25.308594 243.371094 26.84375 240.371094 28.535156 237.4375 C 30.214844 234.492188 32.082031 231.621094 34.035156 228.792969 C 37.949219 223.140625 42.273438 217.707031 46.761719 212.390625 C 51.253906 207.082031 55.945312 201.898438 60.714844 196.769531 L 60.023438 196.023438 C 54.550781 200.421875 49.25 205.054688 44.164062 209.945312 C 39.082031 214.832031 34.207031 219.984375 29.691406 225.503906 C 25.207031 231.050781 21.011719 236.941406 17.800781 243.640625 C 16.210938 247 14.882812 250.582031 14.195312 254.503906 C 13.859375 256.460938 13.695312 258.507812 13.839844 260.621094 C 13.976562 262.71875 14.433594 264.878906 15.265625 266.933594 " fill-opacity="1" fill-rule="nonzero"/></g><path fill="#ffffff" d="M 335.527344 236.402344 C 335.527344 236.414062 335.53125 236.421875 335.527344 236.429688 C 335.539062 236.441406 335.539062 236.453125 335.542969 236.464844 L 335.636719 236.394531 C 335.601562 236.394531 335.5625 236.398438 335.527344 236.402344 " fill-opacity="1" fill-rule="nonzero"/><g clip-path="url(#af857f9b59)"><path fill="#ffffff" d="M 235.835938 190.5625 L 244.144531 195.722656 L 246.394531 197.117188 C 246.394531 197.117188 251.867188 200.515625 251.90625 200.542969 C 253.171875 201.328125 254.316406 202.324219 255.019531 203.652344 C 255.640625 204.820312 255.824219 206.132812 256.078125 207.414062 C 256.472656 209.390625 256.871094 211.371094 257.265625 213.347656 L 257.269531 213.367188 L 259.503906 224.527344 C 259.808594 226.027344 260.988281 226.585938 262.148438 225.773438 C 263.308594 224.960938 264.296875 223.042969 264.332031 221.511719 L 264.605469 209.527344 L 264.605469 209.519531 L 264.765625 201.46875 L 276.390625 193.960938 L 277.238281 193.414062 L 277.25 193.40625 L 310.335938 172.039062 L 310.628906 173.449219 L 310.628906 173.453125 L 310.640625 173.472656 L 310.761719 173.453125 L 312.859375 181.757812 L 312.871094 181.804688 L 323.902344 231.890625 C 324.140625 232.9375 324.6875 233.632812 325.464844 233.394531 L 325.507812 233.382812 C 325.804688 233.289062 326.136719 233.148438 326.460938 232.921875 L 331.675781 229.257812 C 332.890625 228.414062 333.863281 226.53125 333.8125 225.046875 L 333.375 211.027344 C 333.746094 210.960938 334.003906 210.667969 334.332031 210.4375 L 336.625 208.832031 L 337.242188 208.402344 C 338.457031 207.550781 339.007812 206.121094 338.160156 204.90625 L 337.542969 204.019531 C 337.273438 203.628906 336.886719 203.304688 336.449219 203.074219 C 335.527344 202.582031 334.363281 202.503906 333.542969 203.078125 L 333.015625 203.445312 L 332.722656 191.230469 C 333.09375 191.164062 333.574219 191.191406 333.898438 190.964844 L 335.105469 190.121094 L 336.726562 188.984375 C 337.9375 188.136719 338.25 186.398438 337.402344 185.179688 L 336.789062 184.296875 C 336.238281 183.503906 335.207031 182.953125 334.222656 182.902344 C 333.695312 182.871094 333.179688 182.988281 332.761719 183.285156 L 332.320312 183.589844 L 331.929688 169.804688 L 331.914062 169.183594 L 331.636719 159.519531 L 331.597656 158.15625 L 348.316406 147.636719 L 348.449219 147.554688 C 352.277344 145.070312 358.417969 138.328125 360.273438 133.363281 C 360.90625 131.664062 361.035156 130.175781 360.402344 129.136719 C 359.804688 128.164062 358.589844 127.675781 357.011719 127.546875 C 351.988281 127.117188 343.304688 130.277344 339.394531 132.816406 C 339.320312 132.863281 333.457031 137.273438 324.894531 143.738281 C 324.617188 143.949219 324.339844 144.164062 324.050781 144.378906 C 323.621094 144.707031 323.175781 145.039062 322.730469 145.375 L 321.894531 145.035156 L 321.335938 144.808594 L 313.652344 141.667969 L 299.003906 135.683594 L 299.445312 135.382812 C 300.660156 134.53125 301.023438 132.871094 300.179688 131.65625 L 299.566406 130.769531 C 298.71875 129.550781 297.222656 129.589844 296.007812 130.433594 L 293.183594 132.410156 C 292.859375 132.640625 292.445312 132.71875 292.253906 133.042969 L 280.667969 128.164062 L 281.1875 127.800781 C 282.402344 126.953125 282.828125 125.34375 281.980469 124.125 L 281.363281 123.238281 C 280.519531 122.023438 278.699219 121.632812 277.488281 122.476562 L 274.570312 124.515625 C 274.246094 124.742188 273.992188 125.042969 273.804688 125.367188 L 260.824219 120.082031 C 259.453125 119.523438 257.265625 119.660156 256.058594 120.507812 L 250.839844 124.15625 C 249.628906 125 249.71875 126.453125 250.964844 127.261719 L 292.242188 154.050781 L 300.554688 159.449219 L 302.5 160.710938 C 301.867188 161.1875 301.230469 161.667969 300.601562 162.148438 C 283.253906 175.253906 265.324219 188.804688 259.121094 193.5 L 251.886719 191.019531 L 243.699219 188.207031 L 240.324219 187.050781 C 238.882812 186.554688 236.753906 186.816406 235.59375 187.621094 C 234.429688 188.4375 234.542969 189.757812 235.835938 190.5625 " fill-opacity="1" fill-rule="nonzero"/></g></svg>