<svg xmlns="http://www.w3.org/2000/svg" xmlns:xlink="http://www.w3.org/1999/xlink" width="200" zoomAndPan="magnify" viewBox="0 0 150 74.999997" height="100" preserveAspectRatio="xMidYMid meet" version="1.0"><defs><clipPath id="de3e513b0d"><path d="M 4.101562 19.421875 L 145.851562 19.421875 L 145.851562 55.421875 L 4.101562 55.421875 Z M 4.101562 19.421875 " clip-rule="nonzero"/></clipPath></defs><g clip-path="url(#de3e513b0d)"><path fill="#ffffff" d="M 143.25 35.433594 L 84.851562 41.820312 C 85.023438 40.785156 85.199219 39.921875 85.199219 39.058594 L 98.195312 36.644531 L 97.328125 36.125 L 85.199219 37.679688 C 85.199219 32.328125 81.039062 27.839844 75.667969 27.324219 L 74.800781 19.554688 L 73.761719 27.324219 C 68.390625 27.839844 64.402344 32.15625 64.230469 37.679688 L 52.101562 36.125 L 51.234375 36.644531 L 64.402344 39.058594 C 64.578125 39.921875 64.75 40.785156 64.925781 41.820312 L 6.527344 35.433594 C 6.527344 35.433594 5.140625 35.089844 4.101562 36.472656 C 4.101562 36.472656 4.273438 37.679688 6.003906 37.851562 L 37.890625 42.683594 C 36.15625 43.894531 34.945312 45.964844 34.945312 48.382812 C 34.945312 52.179688 38.0625 55.285156 41.875 55.285156 C 45.6875 55.285156 48.808594 52.179688 48.808594 48.382812 C 48.808594 46.828125 48.289062 45.273438 47.421875 44.238281 L 67.523438 47.347656 C 69.429688 50.28125 72.027344 52.523438 75.148438 52.523438 C 78.09375 52.523438 80.867188 50.28125 82.773438 47.347656 L 102.527344 44.066406 C 101.660156 45.273438 101.140625 46.65625 101.140625 48.207031 C 101.140625 52.007812 104.261719 55.113281 108.074219 55.113281 C 111.886719 55.113281 115.003906 52.007812 115.003906 48.207031 C 115.003906 45.964844 113.792969 43.894531 112.058594 42.511719 L 143.945312 37.679688 C 145.675781 37.507812 145.851562 36.296875 145.851562 36.296875 C 144.464844 35.089844 143.25 35.433594 143.25 35.433594 Z M 41.703125 52.871094 C 39.105469 52.871094 37.023438 50.796875 37.023438 48.207031 C 37.023438 45.621094 39.105469 43.546875 41.703125 43.546875 C 44.300781 43.546875 46.382812 45.621094 46.382812 48.207031 C 46.207031 50.796875 44.128906 52.871094 41.703125 52.871094 Z M 75.148438 36.125 L 67.175781 36.125 C 67.175781 33.019531 70.988281 31.984375 70.988281 31.984375 L 78.785156 31.984375 C 78.785156 31.984375 82.597656 33.019531 82.597656 36.125 Z M 112.578125 48.207031 C 112.578125 50.796875 110.5 52.871094 107.898438 52.871094 C 105.300781 52.871094 103.21875 50.796875 103.21875 48.207031 C 103.21875 45.621094 105.300781 43.546875 107.898438 43.546875 C 110.5 43.546875 112.578125 45.792969 112.578125 48.207031 Z M 112.578125 48.207031 " fill-opacity="1" fill-rule="nonzero"/></g></svg>